<svg xmlns="http://www.w3.org/2000/svg" viewBox="0 0 946 946"><style>@media (prefers-color-scheme:light){path{fill:#000}}</style><path d="M438 1C336.3 9.7 247.2 45.9 170 109.8c-13.5 11.2-47.4 44.8-58.1 57.7C38.8 255.1 0 360.9 0 472.4v16.9l9.8-.6c22.7-1.2 50.5-15.1 71.3-35.7 19.5-19.4 29.4-37.5 36.9-67.8 16.2-65.3 48.9-123.1 96.5-170.7 90.5-90.5 219.3-126.8 344.1-97 64.5 15.4 123.7 48.8 172 97 59.1 58.9 94.9 132.8 105.1 216.5 2.6 21.7 2.4 66-.5 87-11.6 84.9-48 157.8-107.8 216-58.6 57-131.6 91.8-213.4 101.7-20.1 2.4-62 2.4-82-.1-70.2-8.5-130.2-33.4-187.2-77.6-12.3-9.6-42.9-40.6-55.1-55.9-16.1-20.2-30.9-42.6-44.5-67.3l-3.1-5.7 18.2-9.4c60.4-31.2 87.9-53.9 128.8-106.2 10.4-13.3 30.2-41.5 38.4-54.7l6-9.7.5 108.7.5 108.7 11-.2c54.9-1.2 115-28.4 154.2-69.6 8.6-9.1 10.2-11.1 68.8-87.4l46-60 .6 55.1c.4 33.8 1 57.4 1.7 60.9 3.3 17.2 9.7 33.1 18.9 46.9 6.1 9.3 20.8 24 29.8 30 18.4 12.1 35.6 18.1 58.8 20.3l6.7.7V265.7l-12.7.6c-30.1 1.4-61.4 9.7-89.8 23.9-32.2 16-59.7 39.1-81.8 68.8-3.9 5.2-27.2 35.6-51.7 67.4l-44.5 57.9-.3-109.3-.2-109.3-12.8.6c-65 3-128.6 36.6-168.6 89-69.2 90.5-104.3 135.5-111.6 142.8-4.7 4.8-11.8 10.8-15.9 13.4-11.1 7.2-43.2 21.8-61.4 28-14.4 4.8-45.3 13.1-62.2 16.6-3.3.7-6.4 1.5-6.8 1.9-1.7 1.5 7.7 41.1 15.3 64.1 12.3 37.5 28.4 69.1 60.3 118.4 18.1 28.1 27.8 40.5 46.7 59.9 41 42.1 81.5 71.6 132.5 96.6 43.2 21.1 87.6 35.2 134.4 42.5 41.7 6.5 90.8 7.2 132.6 1.9C712.3 918.5 864.4 793 921.4 620.7c10.8-32.5 17.8-65.4 21.8-102.2 2-18.5 1.7-78.1-.5-96.5-2.1-17-9.3-59.6-10.7-62.5-.5-1.1-1.9-5.6-3-10C902.1 249.2 840.3 157.9 756.5 95c-68.7-51.6-147.1-82.6-234-92.5C506 .6 453.8-.3 438 1z" fill="#fff"/></svg>
